<?xml version="1.0" encoding="utf-8"?>
<!-- Generator: Adobe Illustrator 26.0.3, SVG Export Plug-In . SVG Version: 6.00 Build 0)  -->
<svg version="1.1"
	 id="svg363034" xmlns:cc="http://creativecommons.org/ns#" xmlns:dc="http://purl.org/dc/elements/1.1/" xmlns:rdf="http://www.w3.org/1999/02/22-rdf-syntax-ns#" xmlns:svg="http://www.w3.org/2000/svg"
	 xmlns="http://www.w3.org/2000/svg" xmlns:xlink="http://www.w3.org/1999/xlink" x="0px" y="0px" viewBox="0 0 1024 768"
	 style="enable-background:new 0 0 1024 768;" xml:space="preserve">
<style type="text/css">
	.st0{fill:#16E3AF;}
	.st1{clip-path:url(#SVGID_00000062900003505252472040000013206758889826166207_);}
	.st2{fill:#FFFFFF;}
	.st3{clip-path:url(#SVGID_00000131333894870920463260000007366175659729576321_);}
</style>
<rect class="st0" width="1024" height="768"/>
<g id="logo-group">
	<g id="logo-center" transform="translate(191.7572249999999 0)">
		<g>
			<defs>
				<polygon id="SVGID_1_" points="1,1 2,1 1,2 				"/>
			</defs>
			<defs>
				<polygon id="SVGID_00000179616213982594406550000004815351545600924322_" points="-1,-1 -2,-1 -1,-2 				"/>
			</defs>
			<clipPath id="SVGID_00000041995530732054817390000016430558465356729494_">
				<use xlink:href="#SVGID_1_"  style="overflow:visible;"/>
			</clipPath>
			
				<clipPath id="SVGID_00000025432245042246650280000000294141124391271079_" style="clip-path:url(#SVGID_00000041995530732054817390000016430558465356729494_);">
				<use xlink:href="#SVGID_00000179616213982594406550000004815351545600924322_"  style="overflow:visible;"/>
			</clipPath>
		</g>
		<g id="slogan" transform="translate(0 0)">
		</g>
		<g id="title" transform="translate(0 0)">
			<path id="path363043" class="st2" d="M72.4,353.7H50v61.8h12.4v-21.5h8.8c3.2,0,6.2-0.4,8.8-1.2c2.9-0.8,5.2-2.1,7.3-3.6
				c2.1-1.7,3.7-4,4.8-6.5c1.1-2.5,1.7-5.5,1.7-8.8c0-5.9-1.7-10.9-5.1-14.4C84.9,355.7,79.5,353.7,72.4,353.7L72.4,353.7z
				 M70.6,382.3h-8.2v-16.7h9.3c3.1,0,5.5,0.7,7.1,2.1c1.5,1.3,2.3,3.4,2.3,6.1c0,2.6-0.8,4.7-2.2,6
				C77.1,381.5,74.3,382.3,70.6,382.3L70.6,382.3z"/>
			<path id="path363045" class="st2" d="M117.3,416c3,0,5.9-0.6,8.8-1.7c2.7-1.1,5.1-2.8,7.1-4.8c2.1-2.1,3.7-4.5,4.8-7.2
				c1.2-2.8,1.8-5.7,1.8-8.8c0-3-0.6-5.9-1.8-8.8c-1.1-2.7-2.8-5.1-4.8-7.1c-2.1-2.1-4.5-3.7-7.1-4.8c-2.9-1.2-5.8-1.8-8.8-1.8
				c-3.1,0-6,0.6-8.8,1.8c-2.7,1.1-5.1,2.8-7.2,4.8c-2.1,2.1-3.7,4.5-4.8,7.1c-1.2,2.9-1.7,5.8-1.7,8.8c0,3.1,0.6,6,1.7,8.8
				c1.1,2.7,2.8,5.1,4.8,7.2c2.1,2.1,4.5,3.7,7.2,4.8C111.3,415.4,114.2,416,117.3,416z M117.3,382.7c5.9,0,10.7,4.8,10.7,10.7
				c0,5.9-4.8,10.7-10.7,10.7c-5.9,0-10.7-4.8-10.7-10.7C106.6,387.6,111.3,382.7,117.3,382.7z"/>
			<path id="path363047" class="st2" d="M164.2,416.1c7.4,0,14.4-3.6,18.6-9.7l-9.8-6.7c-2,2.9-5.2,4.6-8.8,4.6
				c-5.9,0-10.7-4.8-10.7-10.7c0-5.9,4.8-10.7,10.7-10.7c3.5,0,6.7,1.7,8.8,4.6l9.7-6.9c-2.1-2.9-4.8-5.3-7.9-7
				c-3.2-1.7-6.9-2.6-10.5-2.6c-3,0-6,0.6-8.8,1.8c-2.7,1.1-5.1,2.8-7.2,4.8c-2.1,2.1-3.6,4.5-4.8,7.1c-1.1,2.9-1.7,5.8-1.7,8.8
				c0,3.1,0.6,6,1.7,8.8c1.2,2.7,2.8,5.1,4.8,7.2c2.1,2.1,4.5,3.7,7.2,4.8C158.2,415.5,161.2,416.1,164.2,416.1z"/>
			<path id="path363049" class="st2" d="M202,399.1l10.5,16.4h13.9l-16.2-25.1l17.2-19h-15.3l-15,16.7v-36.4h-12v63.8h12v-11.2
				L202,399.1z"/>
			<path id="path363051" class="st2" d="M243.2,415.8c3.2,0,6.2-0.6,9-1.8c2.7-1.3,5.1-2.9,7.2-5.1l-8.3-7.9
				c-2.1,2.2-4.9,3.4-7.9,3.4c-3.9,0-7.2-2-9.2-5.1h31.5v-5.7c0-6-2.3-11.6-6.6-15.8c-4.2-4.2-9.8-6.5-15.8-6.5s-11.6,2.3-15.8,6.5
				c-4.2,4.3-6.6,9.8-6.6,15.8c0,5.9,2.4,11.6,6.6,15.8S237.3,415.8,243.2,415.8z M252.4,387.7H234c2-3,5.3-5.1,9.2-5.1
				C247.1,382.7,250.5,384.7,252.4,387.7L252.4,387.7z"/>
			<path id="path363053" class="st2" d="M281,391.8v-9.3h12.6v-11.1H281v-14.2l-11.9,4v30.7c0,3.3,0.6,6.6,1.9,9.6
				c1.3,2.9,3,5.5,5.3,7.8c2.2,2.2,4.8,4,7.8,5.2c3,1.3,6.2,1.9,9.5,1.9v-11.9C286.6,404.4,281,398.8,281,391.8L281,391.8z"/>
			<path id="path363055" class="st2" d="M326.8,416c10.5,0,20.3-5.1,26.1-13.9l-10.3-7c-3.6,5.3-9.5,8.4-15.8,8.4
				c-5.1,0-9.8-2-13.5-5.5c-3.6-3.6-5.5-8.4-5.5-13.5c0-5.1,2-9.9,5.5-13.5c3.6-3.6,8.4-5.6,13.5-5.6c6.4,0,12.4,3.2,15.8,8.5
				l10.4-6.9c-5.9-8.8-15.7-14-26.2-14c-4.2,0-8.3,0.9-12.2,2.5c-3.8,1.6-7.1,3.8-10.1,6.7c-2.9,2.9-5.1,6.3-6.7,10
				c-1.7,3.9-2.5,8-2.5,12.3c0,4.3,0.8,8.4,2.5,12.3c1.6,3.7,3.9,7,6.7,10c2.9,2.9,6.3,5.1,10.1,6.7
				C318.5,415.2,322.6,416,326.8,416L326.8,416z"/>
			<path id="path363057" class="st2" d="M396.3,370.9h-11.9v2.5c-3.1-1.6-6.6-2.5-10.1-2.5c-3.1,0-6,0.6-8.8,1.8
				c-2.7,1.1-5.1,2.8-7.2,4.8c-2.1,2.1-3.7,4.4-4.8,7.1c-1.2,2.9-1.7,5.8-1.7,8.8c0,3.1,0.6,6,1.7,8.8c1.1,2.7,2.8,5.1,4.8,7.2
				c2.1,2.1,4.5,3.7,7.2,4.8c2.8,1.2,5.7,1.7,8.8,1.7c3.5,0,7-0.8,10.1-2.4v1.8h11.9V370.9z M379.7,402.8c-1.7,1-3.5,1.4-5.4,1.4
				c-5.9,0-10.7-4.8-10.7-10.7c0-5.9,4.8-10.7,10.7-10.7c2.1,0,4,0.6,5.8,1.7c1.7,1.1,3,2.6,3.9,4.4c0.6,1.4,1,2.9,1,4.6
				c0,1.8-0.5,3.7-1.4,5.3C382.6,400.5,381.3,401.8,379.7,402.8z"/>
			<path id="path363059" class="st2" d="M402.5,355.6v59.9h12v-63.8L402.5,355.6z"/>
			<path id="path363061" class="st2" d="M441.7,416c3,0,5.9-0.6,8.8-1.7c2.7-1.1,5.1-2.8,7.1-4.8c2.1-2.1,3.7-4.5,4.8-7.2
				c1.2-2.8,1.8-5.7,1.8-8.8c0-3-0.6-5.9-1.8-8.8c-1.1-2.7-2.8-5.1-4.8-7.1c-2.1-2.1-4.5-3.7-7.1-4.8c-2.9-1.2-5.8-1.8-8.8-1.8
				c-3.1,0-6,0.6-8.8,1.8c-2.7,1.1-5.1,2.8-7.2,4.8c-2.1,2.1-3.7,4.5-4.8,7.1c-1.2,2.9-1.7,5.8-1.7,8.8c0,3.1,0.6,6,1.7,8.8
				c1.1,2.7,2.8,5.1,4.8,7.2c2.1,2.1,4.5,3.7,7.2,4.8C435.6,415.4,438.6,416,441.7,416z M441.7,382.7c5.9,0,10.7,4.8,10.7,10.7
				c0,5.9-4.8,10.7-10.7,10.7c-5.9,0-10.7-4.8-10.7-10.7C431,387.6,435.7,382.7,441.7,382.7z"/>
			<path id="path363063" class="st2" d="M468.4,396v19.5h11.9V396c0-7.7,6.3-13.9,13.9-13.9v-11.9c-3.5,0-6.8,0.6-10,2
				c-3.1,1.3-5.9,3.2-8.2,5.5c-2.4,2.4-4.3,5.1-5.5,8.2C469.1,389.1,468.4,392.6,468.4,396L468.4,396z"/>
			<path id="path363065" class="st2" d="M496.9,373.8v41.7h12v-45.7L496.9,373.8z"/>
			<path id="path363067" class="st2" d="M534.5,415.8c3.2,0,6.2-0.6,9-1.8c2.7-1.3,5.1-2.9,7.2-5.1l-8.3-7.9
				c-2.1,2.2-4.9,3.4-7.9,3.4c-3.9,0-7.2-2-9.2-5.1h31.5v-5.7c0-6-2.3-11.6-6.6-15.8c-4.2-4.2-9.8-6.5-15.8-6.5s-11.6,2.3-15.8,6.5
				c-4.2,4.3-6.6,9.8-6.6,15.8c0,5.9,2.4,11.6,6.6,15.8S528.6,415.8,534.5,415.8z M543.7,387.7h-18.4c2-3,5.3-5.1,9.2-5.1
				C538.4,382.7,541.8,384.7,543.7,387.7L543.7,387.7z"/>
			<path id="path363069" class="st2" d="M557.5,416H576c8,0,14.5-6.5,14.5-14.5s-6.5-14.6-14.5-14.6h-3.3c-1.1,0-2.1-0.9-2.1-2.1
				c0-1.1,1-2.1,2.1-2.1h16.6v-12.4h-16.6c-8,0-14.5,6.5-14.5,14.5c0,8,6.5,14.5,14.5,14.5h3.3c1.1,0,2.1,1,2.1,2.1
				c0,1.1-0.9,2.1-2.1,2.1h-18.5V416z"/>
		</g>
		<g>
			<defs>
				<polygon id="SVGID_00000065047478562234856820000006474095409471979450_" points="1,1 2,1 1,2 				"/>
			</defs>
			<defs>
				<polygon id="SVGID_00000111893980483928183610000002872195049465972615_" points="-1,-1 -2,-1 -1,-2 				"/>
			</defs>
			<clipPath id="SVGID_00000119818440616534091550000017270584600954604697_">
				<use xlink:href="#SVGID_00000065047478562234856820000006474095409471979450_"  style="overflow:visible;"/>
			</clipPath>
			
				<clipPath id="SVGID_00000168084222372646686540000015442953540653053625_" style="clip-path:url(#SVGID_00000119818440616534091550000017270584600954604697_);">
				<use xlink:href="#SVGID_00000111893980483928183610000002872195049465972615_"  style="overflow:visible;"/>
			</clipPath>
		</g>
	</g>
</g>
</svg>
